<?xml version="1.0" standalone="no"?><!DOCTYPE svg PUBLIC "-//W3C//DTD SVG 1.1//EN" "http://www.w3.org/Graphics/SVG/1.1/DTD/svg11.dtd"><svg t="1714211477227" class="icon" viewBox="0 0 1024 1024" version="1.1" xmlns="http://www.w3.org/2000/svg" p-id="2538" xmlns:xlink="http://www.w3.org/1999/xlink" width="200" height="200"><path d="M150.2 812.2h725.1c18.6 0 33.7-15.1 33.7-33.7v-84.2c-3.6 18.1-19.6 31.8-38.8 31.8H155.3c-19.2 0-35.2-13.7-38.8-31.8v84.2c0 18.6 15.1 33.7 33.7 33.7z" fill="#FFD524" p-id="2539"></path><path d="M410.5 215.2h1.7c14.2 0 25.7-11.5 25.7-25.7s-11.5-25.7-25.7-25.7h-1.7c-14.2 0-25.7 11.5-25.7 25.7s11.5 25.7 25.7 25.7z" fill="#333333" p-id="2540"></path><path d="M875.2 163.8H490.8c-14.2 0-25.7 11.5-25.7 25.7s11.5 25.7 25.7 25.7h384.4c18.6 0 33.7 15.1 33.7 33.7v529.7c0 18.6-15.1 33.7-33.7 33.7h-725c-18.6 0-33.7-15.1-33.7-33.7V248.9c0-18.6 15.1-33.7 33.7-33.7h180c14.2 0 25.7-11.5 25.7-25.7s-11.5-25.7-25.7-25.7h-180c-46.9 0-85.1 38.2-85.1 85.1v529.6c0 46.9 38.2 85.1 85.1 85.1h725.1c46.9 0 85.1-38.2 85.1-85.1V248.9c0-46.9-38.2-85.1-85.2-85.1z" fill="#333333" p-id="2541"></path><path d="M161.2 251.1c-9.3 12.3-6.8 29.8 5.5 39.1l329.2 248.5c5 3.8 10.9 5.6 16.8 5.6s11.8-1.9 16.8-5.6l329.2-248.5c12.3-9.3 14.8-26.8 5.5-39.1s-26.8-14.8-39.1-5.5L512.7 481.4 200.3 245.6c-12.3-9.3-29.8-6.8-39.1 5.5z" fill="#333333" p-id="2542"></path></svg>